<svg width="26" height="26" viewBox="0 0 26 26" fill="none" xmlns="http://www.w3.org/2000/svg">
<path d="M12.9987 7.99024C10.2319 7.99024 7.99045 10.2327 7.99045 12.9985C7.99045 15.7653 10.2319 18.0078 12.9987 18.0078C15.7634 18.0078 18.007 15.7653 18.007 12.9985C18.007 10.2327 15.7634 7.99024 12.9987 7.99024ZM12.9987 16.2528C11.2015 16.2528 9.74437 14.7957 9.74437 12.9996C9.74437 11.2023 11.2015 9.74632 12.9987 9.74632C14.796 9.74632 16.2509 11.2023 16.2509 12.9996C16.2509 14.7957 14.796 16.2528 12.9987 16.2528Z" fill="#1A1A1C"/>
<path d="M18.2063 8.97391C18.8513 8.97391 19.3741 8.45105 19.3741 7.80607C19.3741 7.1611 18.8513 6.63824 18.2063 6.63824C17.5613 6.63824 17.0385 7.1611 17.0385 7.80607C17.0385 8.45105 17.5613 8.97391 18.2063 8.97391Z" fill="#1A1A1C"/>
<path d="M22.2439 6.61874C21.7358 5.30899 20.7012 4.27332 19.3915 3.76741C18.6342 3.48249 17.8336 3.32974 17.0233 3.31241C15.98 3.26691 15.6496 3.25391 13.0041 3.25391C10.3586 3.25391 10.0195 3.25391 8.98495 3.31241C8.17679 3.32866 7.3762 3.48141 6.61895 3.76741C5.30812 4.27332 4.27354 5.30899 3.76654 6.61874C3.48162 7.37707 3.32887 8.17657 3.31262 8.98691C3.26604 10.0291 3.25195 10.3595 3.25195 13.0061C3.25195 15.6516 3.25195 15.9885 3.31262 17.0252C3.32887 17.8356 3.48162 18.6351 3.76654 19.3945C4.27462 20.7032 5.3092 21.7388 6.62004 22.2458C7.37404 22.5405 8.17462 22.7073 8.98712 22.7333C10.0304 22.7788 10.3608 22.7929 13.0063 22.7929C15.6518 22.7929 15.9909 22.7929 17.0255 22.7333C17.8347 22.7171 18.6353 22.5632 19.3936 22.2794C20.7034 21.7713 21.738 20.7367 22.246 19.427C22.531 18.6687 22.6837 17.8692 22.7 17.0588C22.7465 16.0167 22.7606 15.6862 22.7606 13.0397C22.7606 10.3931 22.7606 10.0572 22.7 9.02049C22.6859 8.19932 22.5342 7.38574 22.2439 6.61874ZM20.9244 16.9451C20.9168 17.5691 20.8041 18.1877 20.5875 18.7737C20.257 19.6263 19.5843 20.3002 18.7328 20.6273C18.1532 20.8429 17.5422 20.9556 16.9236 20.9642C15.8945 21.0119 15.6041 21.0238 12.9651 21.0238C10.324 21.0238 10.0542 21.0238 9.00554 20.9642C8.38912 20.9567 7.77595 20.8429 7.19745 20.6273C6.3427 20.3012 5.66562 19.6274 5.3352 18.7737C5.12287 18.1952 5.00804 17.5832 4.99829 16.9657C4.9517 15.9365 4.94087 15.6462 4.94087 13.0072C4.94087 10.3671 4.94087 10.0973 4.99829 9.04757C5.00587 8.42357 5.11854 7.80607 5.3352 7.21999C5.66562 6.36524 6.3427 5.69249 7.19745 5.36532C7.77595 5.15082 8.38912 5.03707 9.00554 5.02841C10.0358 4.98182 10.325 4.96882 12.9651 4.96882C15.6052 4.96882 15.876 4.96882 16.9236 5.02841C17.5422 5.03599 18.1532 5.14974 18.7328 5.36532C19.5843 5.69357 20.257 6.36741 20.5875 7.21999C20.7998 7.79849 20.9146 8.41057 20.9244 9.02807C20.971 10.0583 20.9829 10.3476 20.9829 12.9877C20.9829 15.6267 20.9829 15.9105 20.9363 16.9462H20.9244V16.9451Z" fill="#1A1A1C"/>
</svg>
